<svg width="106" height="49" viewBox="0 0 106 49" fill="none" xmlns="http://www.w3.org/2000/svg">
<g id="Group 1000001863">
<path id="Vector 53" d="M2 48.5125C2 48.5125 7.53388 27.0125 18 27.0125C25.8401 27.0125 30.9126 39.0772 32.9644 45.1313C33.2882 46.0866 34.824 46.1239 35.1914 45.1845C37.5633 39.1196 43.3577 26.8973 51.5 27.0125C59.7208 27.1288 65.3424 39.7508 67.5076 45.5987C67.8443 46.5081 69.2596 46.5426 69.6417 45.6514C72.1963 39.6924 78.8356 26.538 87.5 27.0125C98.1878 27.5978 104.5 48.5125 104.5 48.5125" stroke="#6E65E5" stroke-width="3"/>
<path id="Vector 54" d="M2 23.5125C2 23.5125 7.53388 2.0125 18 2.0125C25.8401 2.0125 30.9126 14.0772 32.9644 20.1313C33.2882 21.0866 34.824 21.1239 35.1914 20.1845C37.5633 14.1196 43.3577 1.89729 51.5 2.0125C59.7208 2.12882 65.3424 14.7508 67.5076 20.5987C67.8443 21.5081 69.2596 21.5426 69.6417 20.6514C72.1963 14.6924 78.8356 1.53804 87.5 2.0125C98.1878 2.59776 104.5 23.5125 104.5 23.5125" stroke="#6E65E5" stroke-width="3"/>
</g>
</svg>
