<svg width="177" height="35" viewBox="0 0 177 35" fill="none" xmlns="http://www.w3.org/2000/svg">
<g id="Group 1000001784">
<path id="Vector 55" d="M174.395 30.9342C174.835 31.2683 175.462 31.1827 175.796 30.7429C176.13 30.3032 176.045 29.6758 175.605 29.3417L174.395 30.9342ZM3.88158 32.5668C4.31357 32.2227 4.38482 31.5936 4.04072 31.1616C3.69663 30.7296 3.06748 30.6584 2.63549 31.0025L3.88158 32.5668ZM10.6146 25.1882C10.1556 25.4954 10.0327 26.1166 10.34 26.5755C10.6473 27.0344 11.2684 27.1573 11.7273 26.8501L10.6146 25.1882ZM16.6457 23.7093C17.1174 23.422 17.2668 22.8067 16.9795 22.335C16.6922 21.8634 16.0769 21.7139 15.6053 22.0012L16.6457 23.7093ZM24.2004 17.1531C23.7108 17.4085 23.5208 18.0125 23.7762 18.5022C24.0316 18.9919 24.6356 19.1818 25.1253 18.9264L24.2004 17.1531ZM30.3649 16.3208C30.864 16.0844 31.077 15.4881 30.8406 14.989C30.6042 14.4899 30.0079 14.2769 29.5088 14.5133L30.3649 16.3208ZM38.5427 10.5788C38.0296 10.7833 37.7794 11.3649 37.9839 11.8779C38.1883 12.391 38.77 12.6412 39.283 12.4367L38.5427 10.5788ZM44.7533 10.3767C45.2737 10.1919 45.5459 9.62022 45.3611 9.09975C45.1764 8.57928 44.6047 8.30713 44.0842 8.49188L44.7533 10.3767ZM53.4688 5.4959C52.9375 5.64676 52.6291 6.19975 52.78 6.73103C52.9309 7.26231 53.4838 7.5707 54.0151 7.41983L53.4688 5.4959ZM59.6634 5.9356C60.2003 5.80587 60.5303 5.26551 60.4006 4.72868C60.2708 4.19185 59.7305 3.86183 59.1936 3.99157L59.6634 5.9356ZM68.8483 1.99937C68.304 2.09252 67.9382 2.60933 68.0313 3.15371C68.1245 3.69808 68.6413 4.06386 69.1857 3.97071L68.8483 1.99937ZM74.9575 3.10618C75.5053 3.03583 75.8923 2.53472 75.822 1.98694C75.7516 1.43915 75.2505 1.05212 74.7028 1.12248L74.9575 3.10618ZM84.5323 0.213712C83.9809 0.24477 83.559 0.716954 83.5901 1.26836C83.6212 1.81978 84.0933 2.2416 84.6448 2.21055L84.5323 0.213712ZM90.4764 2.01004C91.0286 2.00322 91.4708 1.55001 91.464 0.997765C91.4572 0.445523 91.0039 0.00337118 90.4517 0.0101923L90.4764 2.01004ZM100.312 0.254798C99.7612 0.22046 99.2865 0.639473 99.2522 1.19069C99.2178 1.74191 99.6368 2.21659 100.188 2.25093L100.312 0.254798ZM105.997 2.74521C106.547 2.80452 107.04 2.40748 107.099 1.85839C107.158 1.3093 106.761 0.816089 106.212 0.756775L105.997 2.74521ZM115.985 2.19088C115.442 2.08991 114.92 2.44823 114.819 2.99121C114.718 3.53419 115.077 4.05621 115.62 4.15717L115.985 2.19088ZM121.334 5.35578C121.872 5.48148 122.41 5.14742 122.536 4.60963C122.661 4.07184 122.327 3.53398 121.789 3.40827L121.334 5.35578ZM131.29 6.01115C130.763 5.8453 130.202 6.13791 130.036 6.6647C129.87 7.1915 130.163 7.753 130.69 7.91884L131.29 6.01115ZM136.215 9.7953C136.734 9.98447 137.308 9.7172 137.497 9.19832C137.687 8.67944 137.419 8.10546 136.9 7.91628L136.215 9.7953ZM146.037 11.6296C145.533 11.4034 144.941 11.6284 144.715 12.1322C144.489 12.6361 144.714 13.2279 145.217 13.4541L146.037 11.6296ZM150.486 15.9555C150.98 16.2027 151.581 16.0028 151.828 15.509C152.076 15.0151 151.876 14.4143 151.382 14.1671L150.486 15.9555ZM160.047 18.8812C159.571 18.6012 158.958 18.76 158.678 19.2361C158.398 19.7121 158.557 20.325 159.033 20.605L160.047 18.8812ZM164.001 23.6595C164.466 23.9578 165.085 23.8227 165.383 23.3579C165.681 22.893 165.546 22.2744 165.081 21.9762L164.001 23.6595ZM173.208 27.5539C172.762 27.2277 172.137 27.3245 171.81 27.7702C171.484 28.2158 171.581 28.8415 172.027 29.1678L173.208 27.5539ZM1.64594 34.4013C2.36097 33.7963 3.10645 33.1843 3.88158 32.5668L2.63549 31.0025C1.84536 31.6318 1.0846 32.2564 0.354058 32.8746L1.64594 34.4013ZM11.7273 26.8501C13.2941 25.801 14.9348 24.7515 16.6457 23.7093L15.6053 22.0012C13.8701 23.0582 12.2053 24.1231 10.6146 25.1882L11.7273 26.8501ZM25.1253 18.9264C26.8225 18.0412 28.5699 17.1709 30.3649 16.3208L29.5088 14.5133C27.6905 15.3745 25.9202 16.2562 24.2004 17.1531L25.1253 18.9264ZM39.283 12.4367C41.0703 11.7245 42.8944 11.0365 44.7533 10.3767L44.0842 8.49188C42.201 9.16036 40.3531 9.85738 38.5427 10.5788L39.283 12.4367ZM54.0151 7.41983C55.8704 6.89299 57.7537 6.39711 59.6634 5.9356L59.1936 3.99157C57.2578 4.45939 55.349 4.96199 53.4688 5.4959L54.0151 7.41983ZM69.1857 3.97071C71.0886 3.64509 73.013 3.35593 74.9575 3.10618L74.7028 1.12248C72.7301 1.37583 70.7782 1.66914 68.8483 1.99937L69.1857 3.97071ZM84.6448 2.21055C86.5727 2.10195 88.5171 2.03424 90.4764 2.01004L90.4517 0.0101923C88.4626 0.0347606 86.4891 0.103498 84.5323 0.213712L84.6448 2.21055ZM100.188 2.25093C102.113 2.37084 104.05 2.53482 105.997 2.74521L106.212 0.756775C104.234 0.543103 102.267 0.37657 100.312 0.254798L100.188 2.25093ZM115.62 4.15717C117.517 4.50992 119.422 4.90876 121.334 5.35578L121.789 3.40827C119.847 2.95426 117.912 2.54916 115.985 2.19088L115.62 4.15717ZM130.69 7.91884C132.527 8.4972 134.369 9.1221 136.215 9.7953L136.9 7.91628C135.026 7.23287 133.156 6.59842 131.29 6.01115L130.69 7.91884ZM145.217 13.4541C146.971 14.2418 148.728 15.075 150.486 15.9555L151.382 14.1671C149.598 13.2741 147.816 12.4288 146.037 11.6296L145.217 13.4541ZM159.033 20.605C160.688 21.579 162.345 22.5968 164.001 23.6595L165.081 21.9762C163.403 20.8996 161.725 19.8683 160.047 18.8812L159.033 20.605ZM172.027 29.1678C172.816 29.7458 173.606 30.3346 174.395 30.9342L175.605 29.3417C174.806 28.7349 174.007 28.139 173.208 27.5539L172.027 29.1678Z" fill="#C1C1C1"/>
<path id="Vector 56" d="M173.5 21.1367L175.5 30.6367L165.5 32.6367" stroke="#C1C1C1" stroke-width="2" stroke-linecap="round" stroke-linejoin="round"/>
</g>
</svg>
